# xmcd
#
# Track frame offsets: 
#        150
#        19243
#        36642
#        51596
#        64497
#        81297
#        99862
#        115457
#        127591
#        143690
#        158870
#        176566
#        198488
#        217131
#
# Disc length: 3069 seconds
#
# Revision: 0
# Processed by: cddbd v1.5.2PL0 Copyright (c) Steve Scherf et al.
# Submitted via: ExactAudioCopy v1.3
#
DISCID=d10bfb0e
DTITLE=Carrie Underwood - Demo 02 (Unreleased Demo Album)
DYEAR=2001
DGENRE=Country
TTITLE0=Godbye Earl
TTITLE1=Because You Love Me
TTITLE2=There You Are
TTITLE3=Can't Get Enough
TTITLE4=Show Me Heaven
TTITLE5=Cold Day In July
TTITLE6=Lesson In Leavin'
TTITLE7=Crazy
TTITLE8=Broken Wing
TTITLE9=Tonight The Heartaches's On Me
TTITLE10=I Hope You Dance
TTITLE11=For God So Loved
TTITLE12=If I Saved My Heart For You
TTITLE13=Everytime The Phone Rings
EXTD=
EXTT0=
EXTT1=
EXTT2=
EXTT3=
EXTT4=
EXTT5=
EXTT6=
EXTT7=
EXTT8=
EXTT9=
EXTT10=
EXTT11=
EXTT12=
EXTT13=
PLAYORDER=
